<mxfile host="app.diagrams.net" modified="2024-04-19T13:53:15.421Z" agent="Mozilla/5.0 (Windows NT 10.0; Win64; x64) AppleWebKit/537.36 (KHTML, like Gecko) Chrome/123.0.0.0 Safari/537.36" etag="TbA82cSDAvYS879n_-Mt" version="24.2.5" type="device">
  <diagram name="Halaman-1" id="plQKSa1glwCvNyIe44hl">
    <mxGraphModel dx="1027" dy="446" grid="1" gridSize="10" guides="1" tooltips="1" connect="1" arrows="1" fold="1" page="1" pageScale="1" pageWidth="827" pageHeight="1169" math="0" shadow="0">
      <root>
        <mxCell id="0" />
        <mxCell id="1" parent="0" />
        <mxCell id="xDBh1tM9se4VtPFU9Nmw-1" value="DOG" style="swimlane;fontStyle=1;align=center;verticalAlign=top;childLayout=stackLayout;horizontal=1;startSize=26;horizontalStack=0;resizeParent=1;resizeParentMax=0;resizeLast=0;collapsible=1;marginBottom=0;whiteSpace=wrap;html=1;" vertex="1" parent="1">
          <mxGeometry x="310" y="10" width="160" height="210" as="geometry" />
        </mxCell>
        <mxCell id="xDBh1tM9se4VtPFU9Nmw-2" value="- name&lt;div&gt;- breed&lt;/div&gt;&lt;div&gt;- age&lt;/div&gt;&lt;div&gt;- color&lt;/div&gt;" style="text;strokeColor=none;fillColor=none;align=left;verticalAlign=top;spacingLeft=4;spacingRight=4;overflow=hidden;rotatable=0;points=[[0,0.5],[1,0.5]];portConstraint=eastwest;whiteSpace=wrap;html=1;" vertex="1" parent="xDBh1tM9se4VtPFU9Nmw-1">
          <mxGeometry y="26" width="160" height="74" as="geometry" />
        </mxCell>
        <mxCell id="xDBh1tM9se4VtPFU9Nmw-3" value="" style="line;strokeWidth=1;fillColor=none;align=left;verticalAlign=middle;spacingTop=-1;spacingLeft=3;spacingRight=3;rotatable=0;labelPosition=right;points=[];portConstraint=eastwest;strokeColor=inherit;" vertex="1" parent="xDBh1tM9se4VtPFU9Nmw-1">
          <mxGeometry y="100" width="160" height="8" as="geometry" />
        </mxCell>
        <mxCell id="xDBh1tM9se4VtPFU9Nmw-4" value="+ __init__()&lt;div&gt;+ get_name()&lt;/div&gt;&lt;div&gt;+ get_breed()&lt;/div&gt;&lt;div&gt;+ get_age()&lt;/div&gt;&lt;div&gt;+ get_color()&lt;/div&gt;&lt;div&gt;+ get message()&lt;/div&gt;" style="text;strokeColor=none;fillColor=none;align=left;verticalAlign=top;spacingLeft=4;spacingRight=4;overflow=hidden;rotatable=0;points=[[0,0.5],[1,0.5]];portConstraint=eastwest;whiteSpace=wrap;html=1;" vertex="1" parent="xDBh1tM9se4VtPFU9Nmw-1">
          <mxGeometry y="108" width="160" height="102" as="geometry" />
        </mxCell>
        <mxCell id="xDBh1tM9se4VtPFU9Nmw-9" value="&lt;b&gt;Tuffy&lt;/b&gt;" style="swimlane;fontStyle=0;childLayout=stackLayout;horizontal=1;startSize=26;fillColor=none;horizontalStack=0;resizeParent=1;resizeParentMax=0;resizeLast=0;collapsible=1;marginBottom=0;whiteSpace=wrap;html=1;" vertex="1" parent="1">
          <mxGeometry x="220" y="320" width="140" height="100" as="geometry" />
        </mxCell>
        <mxCell id="xDBh1tM9se4VtPFU9Nmw-10" value="name: Tuffy&lt;div&gt;breed: Papillon&lt;/div&gt;&lt;div&gt;age: 5&lt;/div&gt;&lt;div&gt;color: white&lt;/div&gt;" style="text;strokeColor=none;fillColor=none;align=left;verticalAlign=top;spacingLeft=4;spacingRight=4;overflow=hidden;rotatable=0;points=[[0,0.5],[1,0.5]];portConstraint=eastwest;whiteSpace=wrap;html=1;" vertex="1" parent="xDBh1tM9se4VtPFU9Nmw-9">
          <mxGeometry y="26" width="140" height="74" as="geometry" />
        </mxCell>
        <mxCell id="xDBh1tM9se4VtPFU9Nmw-13" value="&lt;b&gt;Max&lt;/b&gt;" style="swimlane;fontStyle=0;childLayout=stackLayout;horizontal=1;startSize=26;fillColor=none;horizontalStack=0;resizeParent=1;resizeParentMax=0;resizeLast=0;collapsible=1;marginBottom=0;whiteSpace=wrap;html=1;" vertex="1" parent="1">
          <mxGeometry x="440" y="320" width="140" height="100" as="geometry" />
        </mxCell>
        <mxCell id="xDBh1tM9se4VtPFU9Nmw-14" value="name: Max&lt;div&gt;breed: Great Dane&lt;/div&gt;&lt;div&gt;age: 7&lt;/div&gt;&lt;div&gt;&lt;span style=&quot;background-color: initial;&quot;&gt;color: Black&lt;/span&gt;&lt;/div&gt;" style="text;strokeColor=none;fillColor=none;align=left;verticalAlign=top;spacingLeft=4;spacingRight=4;overflow=hidden;rotatable=0;points=[[0,0.5],[1,0.5]];portConstraint=eastwest;whiteSpace=wrap;html=1;" vertex="1" parent="xDBh1tM9se4VtPFU9Nmw-13">
          <mxGeometry y="26" width="140" height="74" as="geometry" />
        </mxCell>
        <mxCell id="xDBh1tM9se4VtPFU9Nmw-16" style="edgeStyle=orthogonalEdgeStyle;rounded=0;orthogonalLoop=1;jettySize=auto;html=1;" edge="1" parent="1" target="xDBh1tM9se4VtPFU9Nmw-9">
          <mxGeometry relative="1" as="geometry">
            <mxPoint x="380" y="240" as="sourcePoint" />
          </mxGeometry>
        </mxCell>
        <mxCell id="xDBh1tM9se4VtPFU9Nmw-17" style="edgeStyle=orthogonalEdgeStyle;rounded=0;orthogonalLoop=1;jettySize=auto;html=1;entryX=0.5;entryY=0;entryDx=0;entryDy=0;" edge="1" parent="1" target="xDBh1tM9se4VtPFU9Nmw-13">
          <mxGeometry relative="1" as="geometry">
            <mxPoint x="380" y="240" as="sourcePoint" />
            <mxPoint x="300" y="330" as="targetPoint" />
          </mxGeometry>
        </mxCell>
        <mxCell id="xDBh1tM9se4VtPFU9Nmw-18" value="" style="endArrow=none;html=1;rounded=0;exitX=0.498;exitY=1;exitDx=0;exitDy=0;exitPerimeter=0;" edge="1" parent="1" source="xDBh1tM9se4VtPFU9Nmw-4">
          <mxGeometry relative="1" as="geometry">
            <mxPoint x="610" y="230" as="sourcePoint" />
            <mxPoint x="390" y="240" as="targetPoint" />
          </mxGeometry>
        </mxCell>
      </root>
    </mxGraphModel>
  </diagram>
</mxfile>
